# xmcd
#
# Track frame offsets:
#	150
#	13212
#	22570
#	43207
#	53332
#	71387
#	82290
#	92070
#	98925
#	111842
#	124647
#	134500
#	153302
#	164967
#	180580
#	191115
#	205290
#	216202
#	229115
#	241790
#
# Disc length: 3383
#
# Revision: 5
# Processed by: cddbd v1.5.1PL0 Copyright (c) Steve Scherf et al.
# Submitted via: CDex 1.30Release
# Normalized: r4:DSETVAR1,TDELIM( - )
#
DISCID=160d3514
DTITLE=Various Artist - Country Favorites
DYEAR=1999
DGENRE=Country
TTITLE0=Don Williams - Where Do We Go From Here
TTITLE1=George Jones - World's Worst Loser
TTITLE2=Gram Parsons and Emmylou Harris - Love Hurts
TTITLE3=Faron Young - Hello Walls
TTITLE4=Fat Cat Band - Fly Like An Eagle
TTITLE5=Donna Fargo - All That's Keeping Me Alive
TTITLE6=Ray Pillow - How Do I Hide From A Memory
TTITLE7=Waylon Jennings - It's So Easy
TTITLE8=Nashville West - By The Time I Get To Phoenix
TTITLE9=Kelvin Henderson - You Still Want To Go
TTITLE10=Dolly Parton - Release Me
TTITLE11=Blackwater Band - Lighthouse Bar
TTITLE12=Willie Nelson - Is There Something On Your Mind?
TTITLE13=Gene Parsons - Way Out There
TTITLE14=Ferlin Husky - Wings Of A Dove
TTITLE15=Laura Powers - What She Deserves
TTITLE16=Stonewall Jackson - Let The Sun Shine On The People
TTITLE17=Freddie Fender - Silver Wings
TTITLE18=The Oakridge Boys - You'll Never Walk Alone
TTITLE19=Conway Twitty - You Made Me What I Am
EXTD=YEAR: 1999 ID3G:   2
EXTT0=
EXTT1=
EXTT2=
EXTT3=
EXTT4=
EXTT5=
EXTT6=
EXTT7=
EXTT8=
EXTT9=
EXTT10=
EXTT11=
EXTT12=
EXTT13=
EXTT14=
EXTT15=
EXTT16=
EXTT17=
EXTT18=
EXTT19=
PLAYORDER=
